<mxfile host="app.diagrams.net" modified="2021-09-08T01:05:43.109Z" agent="5.0 (Windows NT 10.0; Win64; x64) AppleWebKit/537.36 (KHTML, like Gecko) Chrome/92.0.4515.159 Safari/537.36" etag="jWK9IVwl_mer8-PANYMc" version="15.0.6" type="github" pages="5">
  <diagram id="AU1-YM2_N2_GusIfQAZ2" name="Company X">
    <mxGraphModel dx="2428" dy="2406" grid="0" gridSize="10" guides="1" tooltips="1" connect="1" arrows="1" fold="1" page="0" pageScale="1" pageWidth="850" pageHeight="1100" math="0" shadow="0">
      <root>
        <mxCell id="0" />
        <mxCell id="1" parent="0" />
        <mxCell id="-gpZi2hhZSp9mo7Ovqp--26" style="edgeStyle=orthogonalEdgeStyle;rounded=0;orthogonalLoop=1;jettySize=auto;html=1;" parent="1" source="W32naPlY-PoTMaObdN7--6" target="-gpZi2hhZSp9mo7Ovqp--24" edge="1">
          <mxGeometry relative="1" as="geometry" />
        </mxCell>
        <mxCell id="W32naPlY-PoTMaObdN7--6" value="Function A PIC 1" style="shape=umlActor;verticalLabelPosition=bottom;verticalAlign=top;html=1;" parent="1" vertex="1">
          <mxGeometry x="-813" y="-980" width="30" height="60" as="geometry" />
        </mxCell>
        <mxCell id="W32naPlY-PoTMaObdN7--7" value="Function A PIC 2" style="shape=umlActor;verticalLabelPosition=bottom;verticalAlign=top;html=1;" parent="1" vertex="1">
          <mxGeometry x="-822.75" y="-715" width="30" height="60" as="geometry" />
        </mxCell>
        <mxCell id="W32naPlY-PoTMaObdN7--8" value="Function A PIC 3" style="shape=umlActor;verticalLabelPosition=bottom;verticalAlign=top;html=1;" parent="1" vertex="1">
          <mxGeometry x="-722.75" y="-715" width="30" height="60" as="geometry" />
        </mxCell>
        <mxCell id="W32naPlY-PoTMaObdN7--9" value="Function A PIC 4" style="shape=umlActor;verticalLabelPosition=bottom;verticalAlign=top;html=1;" parent="1" vertex="1">
          <mxGeometry x="-782.75" y="-635" width="30" height="60" as="geometry" />
        </mxCell>
        <mxCell id="-gpZi2hhZSp9mo7Ovqp--9" style="edgeStyle=orthogonalEdgeStyle;rounded=0;orthogonalLoop=1;jettySize=auto;html=1;entryX=1;entryY=0.5;entryDx=0;entryDy=0;" parent="1" source="W32naPlY-PoTMaObdN7--17" target="-gpZi2hhZSp9mo7Ovqp--7" edge="1">
          <mxGeometry relative="1" as="geometry" />
        </mxCell>
        <mxCell id="W32naPlY-PoTMaObdN7--17" value="Function B PIC 2" style="shape=umlActor;verticalLabelPosition=bottom;verticalAlign=top;html=1;" parent="1" vertex="1">
          <mxGeometry x="-302.62" y="315" width="30" height="60" as="geometry" />
        </mxCell>
        <mxCell id="W32naPlY-PoTMaObdN7--18" value="Function B PIC 3" style="shape=umlActor;verticalLabelPosition=bottom;verticalAlign=top;html=1;" parent="1" vertex="1">
          <mxGeometry x="-202.62" y="315" width="30" height="65" as="geometry" />
        </mxCell>
        <mxCell id="W32naPlY-PoTMaObdN7--19" value="Function B PIC 4" style="shape=umlActor;verticalLabelPosition=bottom;verticalAlign=top;html=1;" parent="1" vertex="1">
          <mxGeometry x="-262.62" y="395" width="30" height="60" as="geometry" />
        </mxCell>
        <mxCell id="W32naPlY-PoTMaObdN7--31" style="edgeStyle=orthogonalEdgeStyle;rounded=0;orthogonalLoop=1;jettySize=auto;html=1;entryX=0;entryY=0.5;entryDx=0;entryDy=0;" parent="1" target="-gpZi2hhZSp9mo7Ovqp--1" edge="1">
          <mxGeometry relative="1" as="geometry">
            <mxPoint x="-722.75" y="-627.952380952381" as="sourcePoint" />
          </mxGeometry>
        </mxCell>
        <mxCell id="-gpZi2hhZSp9mo7Ovqp--8" style="edgeStyle=orthogonalEdgeStyle;rounded=0;orthogonalLoop=1;jettySize=auto;html=1;" parent="1" source="W32naPlY-PoTMaObdN7--23" target="-gpZi2hhZSp9mo7Ovqp--7" edge="1">
          <mxGeometry relative="1" as="geometry" />
        </mxCell>
        <mxCell id="W32naPlY-PoTMaObdN7--23" value="Function B PIC 1" style="shape=umlActor;verticalLabelPosition=bottom;verticalAlign=top;html=1;" parent="1" vertex="1">
          <mxGeometry x="-814.62" y="341" width="30" height="60" as="geometry" />
        </mxCell>
        <mxCell id="-gpZi2hhZSp9mo7Ovqp--12" style="edgeStyle=orthogonalEdgeStyle;rounded=0;orthogonalLoop=1;jettySize=auto;html=1;entryX=1;entryY=0.5;entryDx=0;entryDy=0;" parent="1" source="W32naPlY-PoTMaObdN7--25" target="-gpZi2hhZSp9mo7Ovqp--11" edge="1">
          <mxGeometry relative="1" as="geometry" />
        </mxCell>
        <mxCell id="W32naPlY-PoTMaObdN7--25" value="Function C PIC 2" style="shape=umlActor;verticalLabelPosition=bottom;verticalAlign=top;html=1;" parent="1" vertex="1">
          <mxGeometry x="-238.25" y="516" width="30" height="60" as="geometry" />
        </mxCell>
        <mxCell id="W32naPlY-PoTMaObdN7--26" value="Function C PIC 3" style="shape=umlActor;verticalLabelPosition=bottom;verticalAlign=top;html=1;" parent="1" vertex="1">
          <mxGeometry x="-138.25" y="516" width="30" height="60" as="geometry" />
        </mxCell>
        <mxCell id="W32naPlY-PoTMaObdN7--27" value="Function B PIC 4" style="shape=umlActor;verticalLabelPosition=bottom;verticalAlign=top;html=1;" parent="1" vertex="1">
          <mxGeometry x="-208.25" y="606" width="30" height="60" as="geometry" />
        </mxCell>
        <mxCell id="-gpZi2hhZSp9mo7Ovqp--10" style="edgeStyle=orthogonalEdgeStyle;rounded=0;orthogonalLoop=1;jettySize=auto;html=1;exitX=0.5;exitY=0.5;exitDx=0;exitDy=0;exitPerimeter=0;entryX=0;entryY=0.5;entryDx=0;entryDy=0;entryPerimeter=0;" parent="1" source="W32naPlY-PoTMaObdN7--28" target="-gpZi2hhZSp9mo7Ovqp--11" edge="1">
          <mxGeometry relative="1" as="geometry">
            <mxPoint x="-511.5356706891739" y="575.7619628906252" as="targetPoint" />
          </mxGeometry>
        </mxCell>
        <mxCell id="W32naPlY-PoTMaObdN7--28" value="Function C PIC 1" style="shape=umlActor;verticalLabelPosition=bottom;verticalAlign=top;html=1;" parent="1" vertex="1">
          <mxGeometry x="-772.25" y="553" width="30" height="60" as="geometry" />
        </mxCell>
        <mxCell id="-gpZi2hhZSp9mo7Ovqp--20" style="edgeStyle=orthogonalEdgeStyle;rounded=0;orthogonalLoop=1;jettySize=auto;html=1;exitX=0.5;exitY=1;exitDx=0;exitDy=0;" parent="1" source="W32naPlY-PoTMaObdN7--30" target="W32naPlY-PoTMaObdN7--35" edge="1">
          <mxGeometry relative="1" as="geometry" />
        </mxCell>
        <mxCell id="W32naPlY-PoTMaObdN7--30" value="View Function A Req&lt;br&gt;(&lt;b&gt;Excel column F, G, H&lt;/b&gt; )." style="ellipse;whiteSpace=wrap;html=1;fillColor=#ffe6cc;strokeColor=#d79b00;" parent="1" vertex="1">
          <mxGeometry x="-317.25" y="-800" width="200" height="110" as="geometry" />
        </mxCell>
        <mxCell id="-gpZi2hhZSp9mo7Ovqp--44" style="edgeStyle=orthogonalEdgeStyle;rounded=0;orthogonalLoop=1;jettySize=auto;html=1;exitX=1;exitY=0.5;exitDx=0;exitDy=0;entryX=0;entryY=0.5;entryDx=0;entryDy=0;" parent="1" source="W32naPlY-PoTMaObdN7--33" edge="1" target="-gpZi2hhZSp9mo7Ovqp--45">
          <mxGeometry relative="1" as="geometry">
            <mxPoint x="76.0684523809523" y="-950.9047619047619" as="targetPoint" />
          </mxGeometry>
        </mxCell>
        <mxCell id="W32naPlY-PoTMaObdN7--33" value="Answer Function qns&lt;br&gt;&lt;b&gt;(excel col: J,L)&lt;/b&gt;" style="ellipse;whiteSpace=wrap;html=1;" parent="1" vertex="1">
          <mxGeometry x="-306.5" y="-998" width="214.75" height="101" as="geometry" />
        </mxCell>
        <mxCell id="W32naPlY-PoTMaObdN7--53" style="edgeStyle=orthogonalEdgeStyle;rounded=0;orthogonalLoop=1;jettySize=auto;html=1;entryX=0.5;entryY=0;entryDx=0;entryDy=0;" parent="1" source="W32naPlY-PoTMaObdN7--35" target="W32naPlY-PoTMaObdN7--36" edge="1">
          <mxGeometry relative="1" as="geometry" />
        </mxCell>
        <mxCell id="W32naPlY-PoTMaObdN7--35" value="Register a 1st Party Service&lt;br&gt;&lt;font color=&quot;#ff0000&quot;&gt;&lt;b&gt;(a mechanism to check duplicated registry??)&lt;/b&gt;&lt;/font&gt;" style="ellipse;whiteSpace=wrap;html=1;" parent="1" vertex="1">
          <mxGeometry x="-324.25" y="-663" width="212" height="114" as="geometry" />
        </mxCell>
        <mxCell id="W32naPlY-PoTMaObdN7--40" style="edgeStyle=orthogonalEdgeStyle;rounded=0;orthogonalLoop=1;jettySize=auto;html=1;exitX=1;exitY=0.5;exitDx=0;exitDy=0;" parent="1" source="W32naPlY-PoTMaObdN7--36" target="W32naPlY-PoTMaObdN7--41" edge="1">
          <mxGeometry relative="1" as="geometry">
            <mxPoint x="-98" y="-460.75" as="targetPoint" />
          </mxGeometry>
        </mxCell>
        <mxCell id="W32naPlY-PoTMaObdN7--36" value="Answer 1st party serv. qns&lt;br&gt;&lt;b&gt;(Excel col. K, M, R and all qns to the right of R)&lt;/b&gt;" style="ellipse;whiteSpace=wrap;html=1;" parent="1" vertex="1">
          <mxGeometry x="-320.87" y="-527.12" width="207.25" height="111.75" as="geometry" />
        </mxCell>
        <mxCell id="W32naPlY-PoTMaObdN7--42" style="edgeStyle=orthogonalEdgeStyle;rounded=0;orthogonalLoop=1;jettySize=auto;html=1;" parent="1" source="W32naPlY-PoTMaObdN7--41" target="W32naPlY-PoTMaObdN7--43" edge="1">
          <mxGeometry relative="1" as="geometry">
            <mxPoint x="52" y="-460.75" as="targetPoint" />
          </mxGeometry>
        </mxCell>
        <mxCell id="W32naPlY-PoTMaObdN7--41" value="Select a dependency&amp;nbsp;" style="ellipse;whiteSpace=wrap;html=1;fillColor=#ffe6cc;strokeColor=#d79b00;" parent="1" vertex="1">
          <mxGeometry x="-80" y="-517" width="140" height="93.5" as="geometry" />
        </mxCell>
        <mxCell id="-gpZi2hhZSp9mo7Ovqp--42" style="edgeStyle=orthogonalEdgeStyle;rounded=0;orthogonalLoop=1;jettySize=auto;html=1;exitX=1;exitY=0.5;exitDx=0;exitDy=0;" parent="1" source="W32naPlY-PoTMaObdN7--43" target="-gpZi2hhZSp9mo7Ovqp--40" edge="1">
          <mxGeometry relative="1" as="geometry" />
        </mxCell>
        <mxCell id="W32naPlY-PoTMaObdN7--43" value="answer qns for shared service&lt;br&gt;&lt;b&gt;&lt;font color=&quot;#ff0000&quot;&gt;Excel Col. Pls refer to a sperate chart&lt;/font&gt;&lt;/b&gt;" style="ellipse;whiteSpace=wrap;html=1;" parent="1" vertex="1">
          <mxGeometry x="93" y="-511.5" width="231" height="81.5" as="geometry" />
        </mxCell>
        <mxCell id="W32naPlY-PoTMaObdN7--46" style="edgeStyle=orthogonalEdgeStyle;rounded=0;orthogonalLoop=1;jettySize=auto;html=1;" parent="1" source="W32naPlY-PoTMaObdN7--45" target="W32naPlY-PoTMaObdN7--47" edge="1">
          <mxGeometry relative="1" as="geometry">
            <mxPoint x="-120.13" y="-261" as="targetPoint" />
          </mxGeometry>
        </mxCell>
        <mxCell id="W32naPlY-PoTMaObdN7--45" value="Register a 3rd party services&lt;br&gt;&lt;b style=&quot;color: rgb(255 , 0 , 0)&quot;&gt;(a mechanism to check duplicated registry???)&lt;/b&gt;" style="ellipse;whiteSpace=wrap;html=1;" parent="1" vertex="1">
          <mxGeometry x="-410.38" y="-199" width="218" height="105" as="geometry" />
        </mxCell>
        <mxCell id="-gpZi2hhZSp9mo7Ovqp--69" style="edgeStyle=orthogonalEdgeStyle;rounded=0;orthogonalLoop=1;jettySize=auto;html=1;exitX=1;exitY=0.5;exitDx=0;exitDy=0;entryX=0;entryY=0.5;entryDx=0;entryDy=0;" parent="1" source="W32naPlY-PoTMaObdN7--47" target="-gpZi2hhZSp9mo7Ovqp--68" edge="1">
          <mxGeometry relative="1" as="geometry" />
        </mxCell>
        <mxCell id="W32naPlY-PoTMaObdN7--47" value="Answer&amp;nbsp; 3rd party service qns&lt;br&gt;(Excel col. K, M, R and all qns to the right of R)" style="ellipse;whiteSpace=wrap;html=1;" parent="1" vertex="1">
          <mxGeometry x="-55.379999999999995" y="-190.5" width="204" height="90" as="geometry" />
        </mxCell>
        <mxCell id="W32naPlY-PoTMaObdN7--51" style="edgeStyle=orthogonalEdgeStyle;rounded=0;orthogonalLoop=1;jettySize=auto;html=1;entryX=0;entryY=0.5;entryDx=0;entryDy=0;" parent="1" source="W32naPlY-PoTMaObdN7--49" target="W32naPlY-PoTMaObdN7--50" edge="1">
          <mxGeometry relative="1" as="geometry" />
        </mxCell>
        <mxCell id="W32naPlY-PoTMaObdN7--67" style="edgeStyle=orthogonalEdgeStyle;rounded=0;orthogonalLoop=1;jettySize=auto;html=1;entryX=0;entryY=0.5;entryDx=0;entryDy=0;" parent="1" source="W32naPlY-PoTMaObdN7--49" target="W32naPlY-PoTMaObdN7--65" edge="1">
          <mxGeometry relative="1" as="geometry" />
        </mxCell>
        <mxCell id="HmTF_yit3gJTQ6gCZ38t-3" style="edgeStyle=orthogonalEdgeStyle;rounded=0;orthogonalLoop=1;jettySize=auto;html=1;entryX=0;entryY=0.5;entryDx=0;entryDy=0;" parent="1" source="W32naPlY-PoTMaObdN7--49" target="HmTF_yit3gJTQ6gCZ38t-2" edge="1">
          <mxGeometry relative="1" as="geometry">
            <mxPoint x="-517.75" y="-1188" as="targetPoint" />
            <Array as="points">
              <mxPoint x="-621.75" y="-1409" />
              <mxPoint x="-621.75" y="-1170" />
            </Array>
          </mxGeometry>
        </mxCell>
        <mxCell id="W32naPlY-PoTMaObdN7--49" value="Company X Contact point" style="shape=umlActor;verticalLabelPosition=bottom;verticalAlign=top;html=1;" parent="1" vertex="1">
          <mxGeometry x="-755.75" y="-1439" width="30" height="60" as="geometry" />
        </mxCell>
        <mxCell id="W32naPlY-PoTMaObdN7--55" style="edgeStyle=orthogonalEdgeStyle;rounded=0;orthogonalLoop=1;jettySize=auto;html=1;exitX=0.5;exitY=1;exitDx=0;exitDy=0;entryX=0.5;entryY=0;entryDx=0;entryDy=0;" parent="1" source="W32naPlY-PoTMaObdN7--50" target="W32naPlY-PoTMaObdN7--54" edge="1">
          <mxGeometry relative="1" as="geometry" />
        </mxCell>
        <mxCell id="W32naPlY-PoTMaObdN7--50" value="View results for all functions&amp;nbsp;" style="ellipse;whiteSpace=wrap;html=1;fillColor=#f8cecc;strokeColor=#b85450;" parent="1" vertex="1">
          <mxGeometry x="-511.75" y="-1504" width="141" height="65" as="geometry" />
        </mxCell>
        <mxCell id="W32naPlY-PoTMaObdN7--56" style="edgeStyle=orthogonalEdgeStyle;rounded=0;orthogonalLoop=1;jettySize=auto;html=1;" parent="1" source="W32naPlY-PoTMaObdN7--54" target="W32naPlY-PoTMaObdN7--57" edge="1">
          <mxGeometry relative="1" as="geometry">
            <mxPoint x="-375.7500000000002" y="-1329" as="targetPoint" />
          </mxGeometry>
        </mxCell>
        <mxCell id="W32naPlY-PoTMaObdN7--54" value="Confirm all functions as input&amp;nbsp;" style="ellipse;whiteSpace=wrap;html=1;" parent="1" vertex="1">
          <mxGeometry x="-517.75" y="-1409" width="140" height="70" as="geometry" />
        </mxCell>
        <mxCell id="W32naPlY-PoTMaObdN7--69" style="edgeStyle=orthogonalEdgeStyle;rounded=0;orthogonalLoop=1;jettySize=auto;html=1;" parent="1" source="W32naPlY-PoTMaObdN7--57" target="W32naPlY-PoTMaObdN7--70" edge="1">
          <mxGeometry relative="1" as="geometry">
            <mxPoint x="-103.6547764369418" y="-1374" as="targetPoint" />
          </mxGeometry>
        </mxCell>
        <mxCell id="W32naPlY-PoTMaObdN7--57" value="Check in data" style="ellipse;whiteSpace=wrap;html=1;" parent="1" vertex="1">
          <mxGeometry x="-317.5000000000002" y="-1409" width="140" height="70" as="geometry" />
        </mxCell>
        <mxCell id="W32naPlY-PoTMaObdN7--59" style="edgeStyle=orthogonalEdgeStyle;rounded=0;orthogonalLoop=1;jettySize=auto;html=1;exitX=0;exitY=0.3333333333333333;exitDx=0;exitDy=0;exitPerimeter=0;entryX=1;entryY=0.5;entryDx=0;entryDy=0;" parent="1" source="W32naPlY-PoTMaObdN7--58" target="W32naPlY-PoTMaObdN7--50" edge="1">
          <mxGeometry relative="1" as="geometry" />
        </mxCell>
        <mxCell id="W32naPlY-PoTMaObdN7--58" value="BU" style="shape=umlActor;verticalLabelPosition=bottom;verticalAlign=top;html=1;" parent="1" vertex="1">
          <mxGeometry x="-235.75" y="-1492" width="30" height="60" as="geometry" />
        </mxCell>
        <mxCell id="W32naPlY-PoTMaObdN7--68" style="edgeStyle=orthogonalEdgeStyle;rounded=0;orthogonalLoop=1;jettySize=auto;html=1;exitX=1;exitY=0.5;exitDx=0;exitDy=0;entryX=0.073;entryY=0.457;entryDx=0;entryDy=0;entryPerimeter=0;" parent="1" source="W32naPlY-PoTMaObdN7--65" target="W32naPlY-PoTMaObdN7--66" edge="1">
          <mxGeometry relative="1" as="geometry" />
        </mxCell>
        <mxCell id="W32naPlY-PoTMaObdN7--65" value="Check out data" style="ellipse;whiteSpace=wrap;html=1;" parent="1" vertex="1">
          <mxGeometry x="-514.7500000000002" y="-1308" width="140" height="70" as="geometry" />
        </mxCell>
        <mxCell id="W32naPlY-PoTMaObdN7--66" value="edit data" style="ellipse;whiteSpace=wrap;html=1;" parent="1" vertex="1">
          <mxGeometry x="-308.75" y="-1308" width="140" height="76" as="geometry" />
        </mxCell>
        <mxCell id="W32naPlY-PoTMaObdN7--70" value="Submit" style="ellipse;whiteSpace=wrap;html=1;" parent="1" vertex="1">
          <mxGeometry x="-138.75477643694182" y="-1409" width="140" height="70" as="geometry" />
        </mxCell>
        <mxCell id="-gpZi2hhZSp9mo7Ovqp--5" style="edgeStyle=orthogonalEdgeStyle;rounded=0;orthogonalLoop=1;jettySize=auto;html=1;entryX=0;entryY=0.5;entryDx=0;entryDy=0;" parent="1" source="-gpZi2hhZSp9mo7Ovqp--1" target="W32naPlY-PoTMaObdN7--30" edge="1">
          <mxGeometry relative="1" as="geometry">
            <mxPoint x="-345.25" y="-751" as="targetPoint" />
          </mxGeometry>
        </mxCell>
        <mxCell id="-gpZi2hhZSp9mo7Ovqp--1" value="Select Lv2/3 service &amp;amp; Function" style="ellipse;whiteSpace=wrap;html=1;fillColor=#ffe6cc;strokeColor=#d79b00;" parent="1" vertex="1">
          <mxGeometry x="-553.75" y="-798" width="181" height="106" as="geometry" />
        </mxCell>
        <mxCell id="-gpZi2hhZSp9mo7Ovqp--7" value="Same user case for Function B" style="ellipse;whiteSpace=wrap;html=1;" parent="1" vertex="1">
          <mxGeometry x="-571.62" y="331" width="140" height="70" as="geometry" />
        </mxCell>
        <mxCell id="-gpZi2hhZSp9mo7Ovqp--11" value="Same for Function C" style="ellipse;whiteSpace=wrap;html=1;" parent="1" vertex="1">
          <mxGeometry x="-486.25" y="548" width="140" height="70" as="geometry" />
        </mxCell>
        <mxCell id="-gpZi2hhZSp9mo7Ovqp--27" style="edgeStyle=orthogonalEdgeStyle;rounded=0;orthogonalLoop=1;jettySize=auto;html=1;exitX=1;exitY=0.481;exitDx=0;exitDy=0;entryX=0;entryY=0.5;entryDx=0;entryDy=0;exitPerimeter=0;" parent="1" source="-gpZi2hhZSp9mo7Ovqp--24" target="-gpZi2hhZSp9mo7Ovqp--25" edge="1">
          <mxGeometry relative="1" as="geometry">
            <mxPoint x="-533.000000000005" y="-947.9999999999998" as="sourcePoint" />
          </mxGeometry>
        </mxCell>
        <mxCell id="-gpZi2hhZSp9mo7Ovqp--24" value="Select Lv2/3 service &amp;amp; Function" style="ellipse;whiteSpace=wrap;html=1;fillColor=#ffe6cc;strokeColor=#d79b00;" parent="1" vertex="1">
          <mxGeometry x="-737" y="-1003" width="181" height="106" as="geometry" />
        </mxCell>
        <mxCell id="-gpZi2hhZSp9mo7Ovqp--28" style="edgeStyle=orthogonalEdgeStyle;rounded=0;orthogonalLoop=1;jettySize=auto;html=1;" parent="1" source="-gpZi2hhZSp9mo7Ovqp--25" target="W32naPlY-PoTMaObdN7--33" edge="1">
          <mxGeometry relative="1" as="geometry" />
        </mxCell>
        <mxCell id="-gpZi2hhZSp9mo7Ovqp--25" value="View Function A Req&lt;br&gt;(&lt;b&gt;Excel col:&amp;nbsp; F, G, H&lt;/b&gt; )." style="ellipse;whiteSpace=wrap;html=1;fillColor=#ffe6cc;strokeColor=#d79b00;" parent="1" vertex="1">
          <mxGeometry x="-533" y="-1005" width="200" height="110" as="geometry" />
        </mxCell>
        <mxCell id="-gpZi2hhZSp9mo7Ovqp--43" style="edgeStyle=orthogonalEdgeStyle;rounded=0;orthogonalLoop=1;jettySize=auto;html=1;entryX=0.5;entryY=0;entryDx=0;entryDy=0;" parent="1" source="-gpZi2hhZSp9mo7Ovqp--40" target="W32naPlY-PoTMaObdN7--41" edge="1">
          <mxGeometry relative="1" as="geometry">
            <Array as="points">
              <mxPoint x="412" y="-590.75" />
              <mxPoint x="-10" y="-590.75" />
            </Array>
          </mxGeometry>
        </mxCell>
        <mxCell id="-gpZi2hhZSp9mo7Ovqp--64" style="edgeStyle=orthogonalEdgeStyle;rounded=0;orthogonalLoop=1;jettySize=auto;html=1;exitX=1;exitY=0.5;exitDx=0;exitDy=0;" parent="1" source="-gpZi2hhZSp9mo7Ovqp--40" edge="1">
          <mxGeometry relative="1" as="geometry">
            <mxPoint x="525.4970238095239" y="-470.27380952380963" as="targetPoint" />
          </mxGeometry>
        </mxCell>
        <mxCell id="-gpZi2hhZSp9mo7Ovqp--40" value="Any more dependencies?" style="rhombus;whiteSpace=wrap;html=1;" parent="1" vertex="1">
          <mxGeometry x="353" y="-519.75" width="118" height="99" as="geometry" />
        </mxCell>
        <mxCell id="-gpZi2hhZSp9mo7Ovqp--45" value="Save&amp;nbsp;" style="ellipse;whiteSpace=wrap;html=1;" parent="1" vertex="1">
          <mxGeometry x="-44" y="-998" width="112" height="101" as="geometry" />
        </mxCell>
        <mxCell id="-gpZi2hhZSp9mo7Ovqp--50" value="Function A PIC 2" style="shape=umlActor;verticalLabelPosition=bottom;verticalAlign=top;html=1;" parent="1" vertex="1">
          <mxGeometry x="-819.38" y="-334" width="30" height="60" as="geometry" />
        </mxCell>
        <mxCell id="-gpZi2hhZSp9mo7Ovqp--51" value="Function A PIC 3" style="shape=umlActor;verticalLabelPosition=bottom;verticalAlign=top;html=1;" parent="1" vertex="1">
          <mxGeometry x="-719.38" y="-334" width="30" height="60" as="geometry" />
        </mxCell>
        <mxCell id="-gpZi2hhZSp9mo7Ovqp--52" value="Function A PIC 4" style="shape=umlActor;verticalLabelPosition=bottom;verticalAlign=top;html=1;" parent="1" vertex="1">
          <mxGeometry x="-779.38" y="-254" width="30" height="60" as="geometry" />
        </mxCell>
        <mxCell id="-gpZi2hhZSp9mo7Ovqp--57" value="&lt;font style=&quot;font-size: 16px&quot;&gt;&lt;b&gt;&lt;u&gt;Case 1: Answer functional questions: Ideally this user case only happen once per function&lt;/u&gt;&lt;/b&gt;&lt;/font&gt;" style="text;html=1;align=center;verticalAlign=middle;resizable=0;points=[];autosize=1;strokeColor=none;fillColor=none;" parent="1" vertex="1">
          <mxGeometry x="-833.75" y="-1043" width="698" height="19" as="geometry" />
        </mxCell>
        <mxCell id="-gpZi2hhZSp9mo7Ovqp--58" value="&lt;font style=&quot;font-size: 16px&quot;&gt;&lt;b&gt;&lt;u&gt;Case 2: Register 1st Party Services and their dependencies:&amp;nbsp; can be multiple entries&lt;/u&gt;&lt;/b&gt;&lt;/font&gt;" style="text;html=1;align=center;verticalAlign=middle;resizable=0;points=[];autosize=1;strokeColor=none;fillColor=none;" parent="1" vertex="1">
          <mxGeometry x="-835.75" y="-851" width="648" height="19" as="geometry" />
        </mxCell>
        <mxCell id="-gpZi2hhZSp9mo7Ovqp--59" value="&lt;b&gt;&lt;font style=&quot;font-size: 16px&quot;&gt;&lt;u&gt;Case 3: Register 3rd Party Services: can be multiple entries&lt;/u&gt;&lt;/font&gt;&lt;/b&gt;" style="text;html=1;align=center;verticalAlign=middle;resizable=0;points=[];autosize=1;strokeColor=none;fillColor=none;" parent="1" vertex="1">
          <mxGeometry x="-840.75" y="-406" width="463" height="19" as="geometry" />
        </mxCell>
        <mxCell id="-gpZi2hhZSp9mo7Ovqp--63" style="edgeStyle=orthogonalEdgeStyle;rounded=0;orthogonalLoop=1;jettySize=auto;html=1;exitX=0.5;exitY=1;exitDx=0;exitDy=0;" parent="1" source="-gpZi2hhZSp9mo7Ovqp--60" target="W32naPlY-PoTMaObdN7--45" edge="1">
          <mxGeometry relative="1" as="geometry" />
        </mxCell>
        <mxCell id="-gpZi2hhZSp9mo7Ovqp--60" value="View Function A Req&lt;br&gt;(Excel column F, G, H )." style="ellipse;whiteSpace=wrap;html=1;fillColor=#ffe6cc;strokeColor=#d79b00;" parent="1" vertex="1">
          <mxGeometry x="-401.38" y="-336" width="200" height="110" as="geometry" />
        </mxCell>
        <mxCell id="-gpZi2hhZSp9mo7Ovqp--62" style="edgeStyle=orthogonalEdgeStyle;rounded=0;orthogonalLoop=1;jettySize=auto;html=1;exitX=1;exitY=0.5;exitDx=0;exitDy=0;entryX=0;entryY=0.5;entryDx=0;entryDy=0;" parent="1" source="-gpZi2hhZSp9mo7Ovqp--61" target="-gpZi2hhZSp9mo7Ovqp--60" edge="1">
          <mxGeometry relative="1" as="geometry" />
        </mxCell>
        <mxCell id="-gpZi2hhZSp9mo7Ovqp--61" value="Select Lv2/3 service &amp;amp; Function" style="ellipse;whiteSpace=wrap;html=1;fillColor=#ffe6cc;strokeColor=#d79b00;" parent="1" vertex="1">
          <mxGeometry x="-609.88" y="-334" width="181" height="106" as="geometry" />
        </mxCell>
        <mxCell id="-gpZi2hhZSp9mo7Ovqp--65" value="Yes" style="text;html=1;align=center;verticalAlign=middle;resizable=0;points=[];autosize=1;strokeColor=none;fillColor=none;" parent="1" vertex="1">
          <mxGeometry x="283" y="-590.75" width="30" height="18" as="geometry" />
        </mxCell>
        <mxCell id="-gpZi2hhZSp9mo7Ovqp--66" value="No" style="text;html=1;align=center;verticalAlign=middle;resizable=0;points=[];autosize=1;strokeColor=none;fillColor=none;" parent="1" vertex="1">
          <mxGeometry x="473" y="-494.75" width="25" height="18" as="geometry" />
        </mxCell>
        <mxCell id="-gpZi2hhZSp9mo7Ovqp--67" value="Save&amp;nbsp;" style="ellipse;whiteSpace=wrap;html=1;" parent="1" vertex="1">
          <mxGeometry x="525" y="-521.75" width="112" height="101" as="geometry" />
        </mxCell>
        <mxCell id="-gpZi2hhZSp9mo7Ovqp--68" value="Save&amp;nbsp;" style="ellipse;whiteSpace=wrap;html=1;" parent="1" vertex="1">
          <mxGeometry x="210.37" y="-197" width="112" height="101" as="geometry" />
        </mxCell>
        <mxCell id="-gpZi2hhZSp9mo7Ovqp--71" value="&lt;font style=&quot;font-size: 16px&quot;&gt;&lt;b&gt;All the users here belong to same company, so should have same read and write permission&lt;/b&gt;&lt;/font&gt;" style="text;html=1;align=center;verticalAlign=middle;resizable=0;points=[];autosize=1;strokeColor=none;fillColor=none;" parent="1" vertex="1">
          <mxGeometry x="-840.75" y="-1680" width="713" height="19" as="geometry" />
        </mxCell>
        <mxCell id="-gpZi2hhZSp9mo7Ovqp--72" value="&lt;b&gt;&lt;font style=&quot;font-size: 16px&quot;&gt;&lt;u&gt;Case 0: View all the inputs, view IT-BCP readiness&lt;/u&gt;&lt;/font&gt;&lt;/b&gt;" style="text;html=1;align=center;verticalAlign=middle;resizable=0;points=[];autosize=1;strokeColor=none;fillColor=none;" parent="1" vertex="1">
          <mxGeometry x="-835.75" y="-1559" width="390" height="19" as="geometry" />
        </mxCell>
        <mxCell id="-gpZi2hhZSp9mo7Ovqp--73" value="&lt;b&gt;&lt;font style=&quot;font-size: 16px&quot;&gt;Company X Function A:&lt;/font&gt;&lt;/b&gt;" style="text;html=1;align=center;verticalAlign=middle;resizable=0;points=[];autosize=1;strokeColor=none;fillColor=none;" parent="1" vertex="1">
          <mxGeometry x="-833.75" y="-1100" width="191" height="19" as="geometry" />
        </mxCell>
        <mxCell id="-gpZi2hhZSp9mo7Ovqp--74" value="&lt;b&gt;&lt;font style=&quot;font-size: 16px&quot;&gt;Company X :&lt;/font&gt;&lt;/b&gt;" style="text;html=1;align=center;verticalAlign=middle;resizable=0;points=[];autosize=1;strokeColor=none;fillColor=none;" parent="1" vertex="1">
          <mxGeometry x="-835.75" y="-1616" width="108" height="19" as="geometry" />
        </mxCell>
        <mxCell id="-gpZi2hhZSp9mo7Ovqp--75" value="&lt;b&gt;&lt;font style=&quot;font-size: 16px&quot;&gt;Company X Function B:&lt;/font&gt;&lt;/b&gt;" style="text;html=1;align=center;verticalAlign=middle;resizable=0;points=[];autosize=1;strokeColor=none;fillColor=none;" parent="1" vertex="1">
          <mxGeometry x="-840.75" y="292" width="191" height="19" as="geometry" />
        </mxCell>
        <mxCell id="-gpZi2hhZSp9mo7Ovqp--76" value="&lt;b&gt;&lt;font style=&quot;font-size: 16px&quot;&gt;Company X Function C:&lt;/font&gt;&lt;/b&gt;" style="text;html=1;align=center;verticalAlign=middle;resizable=0;points=[];autosize=1;strokeColor=none;fillColor=none;" parent="1" vertex="1">
          <mxGeometry x="-840.75" y="497" width="191" height="19" as="geometry" />
        </mxCell>
        <mxCell id="HmTF_yit3gJTQ6gCZ38t-2" value="View IT readiness" style="ellipse;whiteSpace=wrap;html=1;" parent="1" vertex="1">
          <mxGeometry x="-493.0000000000002" y="-1205" width="140" height="70" as="geometry" />
        </mxCell>
        <mxCell id="JNOww10qwIhU7luUqyG3-1" value="&lt;b&gt;&lt;font style=&quot;font-size: 16px&quot;&gt;&lt;u&gt;Case 4: No applicable IT services&lt;/u&gt;&lt;/font&gt;&lt;/b&gt;" style="text;html=1;align=center;verticalAlign=middle;resizable=0;points=[];autosize=1;strokeColor=none;fillColor=none;" parent="1" vertex="1">
          <mxGeometry x="-851" y="-55" width="263" height="19" as="geometry" />
        </mxCell>
        <mxCell id="JNOww10qwIhU7luUqyG3-2" style="edgeStyle=orthogonalEdgeStyle;rounded=0;orthogonalLoop=1;jettySize=auto;html=1;" parent="1" source="JNOww10qwIhU7luUqyG3-3" target="JNOww10qwIhU7luUqyG3-5" edge="1">
          <mxGeometry relative="1" as="geometry" />
        </mxCell>
        <mxCell id="JNOww10qwIhU7luUqyG3-3" value="Function A PIC 1" style="shape=umlActor;verticalLabelPosition=bottom;verticalAlign=top;html=1;" parent="1" vertex="1">
          <mxGeometry x="-813" y="86" width="30" height="60" as="geometry" />
        </mxCell>
        <mxCell id="JNOww10qwIhU7luUqyG3-4" style="edgeStyle=orthogonalEdgeStyle;rounded=0;orthogonalLoop=1;jettySize=auto;html=1;exitX=1;exitY=0.481;exitDx=0;exitDy=0;entryX=0;entryY=0.5;entryDx=0;entryDy=0;exitPerimeter=0;" parent="1" source="JNOww10qwIhU7luUqyG3-5" target="JNOww10qwIhU7luUqyG3-7" edge="1">
          <mxGeometry relative="1" as="geometry">
            <mxPoint x="-533.000000000005" y="118.00000000000023" as="sourcePoint" />
          </mxGeometry>
        </mxCell>
        <mxCell id="JNOww10qwIhU7luUqyG3-5" value="Select Lv2/3 service &amp;amp; Function" style="ellipse;whiteSpace=wrap;html=1;fillColor=#ffe6cc;strokeColor=#d79b00;" parent="1" vertex="1">
          <mxGeometry x="-737" y="63" width="181" height="106" as="geometry" />
        </mxCell>
        <mxCell id="JNOww10qwIhU7luUqyG3-6" style="edgeStyle=orthogonalEdgeStyle;rounded=0;orthogonalLoop=1;jettySize=auto;html=1;entryX=0;entryY=0.5;entryDx=0;entryDy=0;" parent="1" source="JNOww10qwIhU7luUqyG3-7" edge="1" target="JNOww10qwIhU7luUqyG3-8">
          <mxGeometry relative="1" as="geometry">
            <mxPoint x="-260" y="119" as="targetPoint" />
          </mxGeometry>
        </mxCell>
        <mxCell id="JNOww10qwIhU7luUqyG3-7" value="View Function A Req&lt;br&gt;(&lt;b&gt;Excel col:&amp;nbsp; F, G, H&lt;/b&gt; )." style="ellipse;whiteSpace=wrap;html=1;fillColor=#ffe6cc;strokeColor=#d79b00;" parent="1" vertex="1">
          <mxGeometry x="-500" y="59" width="200" height="110" as="geometry" />
        </mxCell>
        <mxCell id="JNOww10qwIhU7luUqyG3-8" value="No applicable IT services" style="ellipse;whiteSpace=wrap;html=1;strokeColor=#666666;fillColor=#f5f5f5;fontColor=#333333;" parent="1" vertex="1">
          <mxGeometry x="-253.25" y="84" width="120" height="60" as="geometry" />
        </mxCell>
        <mxCell id="GWwD0PipkNPG_7XFbQsd-1" value="&lt;font color=&quot;#ff0000&quot;&gt;May enter the same service as Function A&lt;/font&gt;" style="text;html=1;strokeColor=none;fillColor=none;align=center;verticalAlign=middle;whiteSpace=wrap;rounded=0;" vertex="1" parent="1">
          <mxGeometry x="-590" y="403" width="180" height="56" as="geometry" />
        </mxCell>
        <mxCell id="d6ayeBFfSVVr19dzEPfN-1" value="&lt;span style=&quot;font-size: 11.0pt&quot;&gt;&lt;b style=&quot;font-size: 16px&quot;&gt;&lt;font color=&quot;#ff0000&quot; style=&quot;font-size: 16px&quot;&gt;1. Company Tech Folder&lt;br&gt;2. Open a sub folder&lt;br&gt;3. Company name in Japanese&lt;br&gt;4. Open excel&amp;nbsp;&lt;br&gt;【様式&lt;span lang=&quot;EN-US&quot;&gt;3&lt;/span&gt;】業務影響度分析シート&lt;/font&gt;&lt;/b&gt;&lt;br&gt;&lt;/span&gt;" style="text;html=1;strokeColor=none;fillColor=none;align=center;verticalAlign=middle;whiteSpace=wrap;rounded=0;" vertex="1" parent="1">
          <mxGeometry x="-99" y="-1196" width="255" height="127" as="geometry" />
        </mxCell>
        <mxCell id="d6ayeBFfSVVr19dzEPfN-2" value="&lt;font color=&quot;#ff3333&quot; style=&quot;font-size: 17px&quot;&gt;&lt;b&gt;Column B &amp;amp;C&lt;/b&gt;&lt;/font&gt;" style="text;html=1;strokeColor=none;fillColor=none;align=center;verticalAlign=middle;whiteSpace=wrap;rounded=0;" vertex="1" parent="1">
          <mxGeometry x="-670" y="-994" width="128" height="20" as="geometry" />
        </mxCell>
        <mxCell id="d6ayeBFfSVVr19dzEPfN-4" value="&lt;font color=&quot;#ff3333&quot; style=&quot;font-size: 17px&quot;&gt;&lt;b&gt;Column K,L,P&lt;/b&gt;&lt;/font&gt;" style="text;html=1;strokeColor=none;fillColor=none;align=center;verticalAlign=middle;whiteSpace=wrap;rounded=0;" vertex="1" parent="1">
          <mxGeometry x="-445.75" y="-1007" width="128" height="20" as="geometry" />
        </mxCell>
      </root>
    </mxGraphModel>
  </diagram>
  <diagram id="en-8oDmBA0QhUIehSiqE" name="Admin">
    <mxGraphModel dx="1422" dy="1805" grid="1" gridSize="10" guides="1" tooltips="1" connect="1" arrows="1" fold="1" page="1" pageScale="1" pageWidth="850" pageHeight="1100" math="0" shadow="0">
      <root>
        <mxCell id="pQCm6_jaStThFFM-fUs_-0" />
        <mxCell id="pQCm6_jaStThFFM-fUs_-1" parent="pQCm6_jaStThFFM-fUs_-0" />
        <mxCell id="2NQNUln4oWd3PKYwQYlI-0" value="Admin" style="shape=umlActor;verticalLabelPosition=bottom;verticalAlign=top;html=1;" parent="pQCm6_jaStThFFM-fUs_-1" vertex="1">
          <mxGeometry x="100" y="-1001" width="30" height="60" as="geometry" />
        </mxCell>
        <mxCell id="2NQNUln4oWd3PKYwQYlI-1" value="Edit data" style="ellipse;whiteSpace=wrap;html=1;" parent="pQCm6_jaStThFFM-fUs_-1" vertex="1">
          <mxGeometry x="231" y="-1050" width="140" height="70" as="geometry" />
        </mxCell>
        <mxCell id="2NQNUln4oWd3PKYwQYlI-2" value="Edit questions" style="ellipse;whiteSpace=wrap;html=1;" parent="pQCm6_jaStThFFM-fUs_-1" vertex="1">
          <mxGeometry x="231" y="-950" width="140" height="70" as="geometry" />
        </mxCell>
      </root>
    </mxGraphModel>
  </diagram>
  <diagram id="s-Ob9Kv2C_xTjsaCYt81" name="How to answer for dependencies">
    <mxGraphModel dx="1422" dy="705" grid="0" gridSize="10" guides="1" tooltips="1" connect="1" arrows="1" fold="1" page="1" pageScale="1" pageWidth="850" pageHeight="1100" math="0" shadow="0">
      <root>
        <mxCell id="gV95iGPZCNPMKc5DRgid-0" />
        <mxCell id="gV95iGPZCNPMKc5DRgid-1" parent="gV95iGPZCNPMKc5DRgid-0" />
        <mxCell id="npVbZ4nmovOdccGcQsLy-1" style="edgeStyle=orthogonalEdgeStyle;rounded=0;orthogonalLoop=1;jettySize=auto;html=1;" edge="1" parent="gV95iGPZCNPMKc5DRgid-1" source="npVbZ4nmovOdccGcQsLy-0">
          <mxGeometry relative="1" as="geometry">
            <mxPoint x="241" y="275" as="targetPoint" />
          </mxGeometry>
        </mxCell>
        <mxCell id="npVbZ4nmovOdccGcQsLy-0" value="Enter Column K&lt;br&gt;IT-RTO" style="rounded=0;whiteSpace=wrap;html=1;" vertex="1" parent="gV95iGPZCNPMKc5DRgid-1">
          <mxGeometry x="86" y="245" width="95" height="60" as="geometry" />
        </mxCell>
        <mxCell id="npVbZ4nmovOdccGcQsLy-3" style="edgeStyle=orthogonalEdgeStyle;rounded=0;orthogonalLoop=1;jettySize=auto;html=1;exitX=1;exitY=0.5;exitDx=0;exitDy=0;" edge="1" parent="gV95iGPZCNPMKc5DRgid-1" source="npVbZ4nmovOdccGcQsLy-2">
          <mxGeometry relative="1" as="geometry">
            <mxPoint x="403" y="275" as="targetPoint" />
          </mxGeometry>
        </mxCell>
        <mxCell id="npVbZ4nmovOdccGcQsLy-2" value="Select value Column N&lt;br&gt;Multi/Single region?" style="rounded=0;whiteSpace=wrap;html=1;" vertex="1" parent="gV95iGPZCNPMKc5DRgid-1">
          <mxGeometry x="240" y="245" width="105" height="60" as="geometry" />
        </mxCell>
        <mxCell id="npVbZ4nmovOdccGcQsLy-5" style="edgeStyle=orthogonalEdgeStyle;rounded=0;orthogonalLoop=1;jettySize=auto;html=1;" edge="1" parent="gV95iGPZCNPMKc5DRgid-1" source="npVbZ4nmovOdccGcQsLy-4">
          <mxGeometry relative="1" as="geometry">
            <mxPoint x="425" y="392" as="targetPoint" />
          </mxGeometry>
        </mxCell>
        <mxCell id="npVbZ4nmovOdccGcQsLy-9" style="edgeStyle=orthogonalEdgeStyle;rounded=0;orthogonalLoop=1;jettySize=auto;html=1;exitX=1;exitY=0.5;exitDx=0;exitDy=0;" edge="1" parent="gV95iGPZCNPMKc5DRgid-1" source="npVbZ4nmovOdccGcQsLy-4">
          <mxGeometry relative="1" as="geometry">
            <mxPoint x="568" y="275" as="targetPoint" />
          </mxGeometry>
        </mxCell>
        <mxCell id="npVbZ4nmovOdccGcQsLy-4" value="" style="rhombus;whiteSpace=wrap;html=1;" vertex="1" parent="gV95iGPZCNPMKc5DRgid-1">
          <mxGeometry x="404.5" y="257.5" width="41" height="35" as="geometry" />
        </mxCell>
        <mxCell id="npVbZ4nmovOdccGcQsLy-7" value="Single" style="text;html=1;strokeColor=none;fillColor=none;align=center;verticalAlign=middle;whiteSpace=wrap;rounded=0;" vertex="1" parent="gV95iGPZCNPMKc5DRgid-1">
          <mxGeometry x="367" y="341" width="40" height="20" as="geometry" />
        </mxCell>
        <mxCell id="npVbZ4nmovOdccGcQsLy-12" style="edgeStyle=orthogonalEdgeStyle;rounded=0;orthogonalLoop=1;jettySize=auto;html=1;exitX=0.5;exitY=1;exitDx=0;exitDy=0;" edge="1" parent="gV95iGPZCNPMKc5DRgid-1" source="npVbZ4nmovOdccGcQsLy-8" target="npVbZ4nmovOdccGcQsLy-17">
          <mxGeometry relative="1" as="geometry">
            <mxPoint x="427" y="561" as="targetPoint" />
          </mxGeometry>
        </mxCell>
        <mxCell id="npVbZ4nmovOdccGcQsLy-8" value="View value in column P&lt;br&gt;Service Baseline single&lt;br&gt;and view column M=P" style="ellipse;whiteSpace=wrap;html=1;fillColor=#ffe6cc;strokeColor=#d79b00;" vertex="1" parent="gV95iGPZCNPMKc5DRgid-1">
          <mxGeometry x="351" y="390" width="156" height="80" as="geometry" />
        </mxCell>
        <mxCell id="npVbZ4nmovOdccGcQsLy-10" value="Multi" style="text;html=1;strokeColor=none;fillColor=none;align=center;verticalAlign=middle;whiteSpace=wrap;rounded=0;" vertex="1" parent="gV95iGPZCNPMKc5DRgid-1">
          <mxGeometry x="462" y="247" width="40" height="20" as="geometry" />
        </mxCell>
        <mxCell id="npVbZ4nmovOdccGcQsLy-14" value="" style="edgeStyle=orthogonalEdgeStyle;rounded=0;orthogonalLoop=1;jettySize=auto;html=1;" edge="1" parent="gV95iGPZCNPMKc5DRgid-1" source="npVbZ4nmovOdccGcQsLy-11">
          <mxGeometry relative="1" as="geometry">
            <mxPoint x="676" y="280" as="targetPoint" />
          </mxGeometry>
        </mxCell>
        <mxCell id="npVbZ4nmovOdccGcQsLy-11" value="View value in column Q&lt;br&gt;Service baseline Multi&lt;br&gt;and column M=Q" style="ellipse;whiteSpace=wrap;html=1;fillColor=#ffe6cc;strokeColor=#d79b00;" vertex="1" parent="gV95iGPZCNPMKc5DRgid-1">
          <mxGeometry x="513" y="240" width="140" height="80" as="geometry" />
        </mxCell>
        <mxCell id="npVbZ4nmovOdccGcQsLy-16" style="edgeStyle=orthogonalEdgeStyle;rounded=0;orthogonalLoop=1;jettySize=auto;html=1;exitX=0.5;exitY=1;exitDx=0;exitDy=0;entryX=0.5;entryY=0;entryDx=0;entryDy=0;" edge="1" parent="gV95iGPZCNPMKc5DRgid-1" source="npVbZ4nmovOdccGcQsLy-15" target="npVbZ4nmovOdccGcQsLy-17">
          <mxGeometry relative="1" as="geometry">
            <mxPoint x="620" y="557" as="targetPoint" />
          </mxGeometry>
        </mxCell>
        <mxCell id="npVbZ4nmovOdccGcQsLy-15" value="Enter Column O&lt;br&gt;Which datacenter" style="rounded=0;whiteSpace=wrap;html=1;" vertex="1" parent="gV95iGPZCNPMKc5DRgid-1">
          <mxGeometry x="676" y="250" width="120" height="60" as="geometry" />
        </mxCell>
        <mxCell id="npVbZ4nmovOdccGcQsLy-17" value="View all the value &lt;b&gt;R and R onwards&lt;/b&gt;" style="ellipse;whiteSpace=wrap;html=1;fillColor=#ffe6cc;strokeColor=#d79b00;" vertex="1" parent="gV95iGPZCNPMKc5DRgid-1">
          <mxGeometry x="343" y="560" width="382" height="119" as="geometry" />
        </mxCell>
        <mxCell id="npVbZ4nmovOdccGcQsLy-19" style="edgeStyle=orthogonalEdgeStyle;rounded=0;orthogonalLoop=1;jettySize=auto;html=1;exitX=0.5;exitY=1;exitDx=0;exitDy=0;entryX=0.5;entryY=0;entryDx=0;entryDy=0;" edge="1" parent="gV95iGPZCNPMKc5DRgid-1" source="npVbZ4nmovOdccGcQsLy-18" target="npVbZ4nmovOdccGcQsLy-0">
          <mxGeometry relative="1" as="geometry" />
        </mxCell>
        <mxCell id="npVbZ4nmovOdccGcQsLy-18" value="Select Dependency&lt;br&gt;Column I" style="rounded=0;whiteSpace=wrap;html=1;fillColor=#ffe6cc;strokeColor=#d79b00;" vertex="1" parent="gV95iGPZCNPMKc5DRgid-1">
          <mxGeometry x="73.5" y="131" width="120" height="60" as="geometry" />
        </mxCell>
        <mxCell id="u0SC-28xAL--Be5Ssd-G-0" value="&lt;b&gt;&lt;font style=&quot;font-size: 16px&quot; color=&quot;#ff0000&quot;&gt;Service list from Output 1&lt;/font&gt;&lt;/b&gt;" style="text;html=1;strokeColor=none;fillColor=none;align=center;verticalAlign=middle;whiteSpace=wrap;rounded=0;" vertex="1" parent="gV95iGPZCNPMKc5DRgid-1">
          <mxGeometry x="170" y="143.5" width="168" height="35" as="geometry" />
        </mxCell>
        <mxCell id="u0SC-28xAL--Be5Ssd-G-1" value="&lt;b&gt;&lt;font style=&quot;font-size: 16px&quot; color=&quot;#ff0000&quot;&gt;User Input&lt;/font&gt;&lt;/b&gt;" style="text;html=1;strokeColor=none;fillColor=none;align=center;verticalAlign=middle;whiteSpace=wrap;rounded=0;" vertex="1" parent="gV95iGPZCNPMKc5DRgid-1">
          <mxGeometry x="37" y="305" width="168" height="35" as="geometry" />
        </mxCell>
        <mxCell id="u0SC-28xAL--Be5Ssd-G-2" value="&lt;b&gt;&lt;font style=&quot;font-size: 16px&quot; color=&quot;#ff0000&quot;&gt;User Input&lt;/font&gt;&lt;/b&gt;" style="text;html=1;strokeColor=none;fillColor=none;align=center;verticalAlign=middle;whiteSpace=wrap;rounded=0;" vertex="1" parent="gV95iGPZCNPMKc5DRgid-1">
          <mxGeometry x="199" y="305" width="168" height="35" as="geometry" />
        </mxCell>
        <mxCell id="vm-3O2uuTZOLLw9rTsDe-1" style="edgeStyle=orthogonalEdgeStyle;rounded=0;orthogonalLoop=1;jettySize=auto;html=1;exitX=0.5;exitY=1;exitDx=0;exitDy=0;" edge="1" parent="gV95iGPZCNPMKc5DRgid-1" source="u0SC-28xAL--Be5Ssd-G-3">
          <mxGeometry relative="1" as="geometry">
            <mxPoint x="355" y="501" as="targetPoint" />
          </mxGeometry>
        </mxCell>
        <mxCell id="u0SC-28xAL--Be5Ssd-G-3" value="&lt;b&gt;&lt;font style=&quot;font-size: 16px&quot;&gt;&lt;font color=&quot;#ff0000&quot;&gt;&amp;nbsp;from Output 1&lt;br&gt;Column T&lt;/font&gt;&lt;br&gt;&lt;/font&gt;&lt;/b&gt;" style="text;html=1;strokeColor=none;fillColor=none;align=center;verticalAlign=middle;whiteSpace=wrap;rounded=0;" vertex="1" parent="gV95iGPZCNPMKc5DRgid-1">
          <mxGeometry x="277.5" y="456" width="168" height="35" as="geometry" />
        </mxCell>
        <mxCell id="u0SC-28xAL--Be5Ssd-G-4" value="&lt;b&gt;&lt;font style=&quot;font-size: 16px&quot;&gt;&lt;font color=&quot;#ff0000&quot;&gt;&amp;nbsp;from Output 1&lt;br&gt;Column X&lt;/font&gt;&lt;br&gt;&lt;/font&gt;&lt;/b&gt;" style="text;html=1;strokeColor=none;fillColor=none;align=center;verticalAlign=middle;whiteSpace=wrap;rounded=0;" vertex="1" parent="gV95iGPZCNPMKc5DRgid-1">
          <mxGeometry x="491" y="205" width="168" height="35" as="geometry" />
        </mxCell>
        <mxCell id="u0SC-28xAL--Be5Ssd-G-5" value="&lt;b&gt;&lt;font style=&quot;font-size: 16px&quot;&gt;&lt;font color=&quot;#ff3333&quot;&gt;&amp;nbsp;from Output 2 （but not updated yet）&lt;/font&gt;&lt;br&gt;&lt;/font&gt;&lt;/b&gt;" style="text;html=1;strokeColor=none;fillColor=none;align=center;verticalAlign=middle;whiteSpace=wrap;rounded=0;" vertex="1" parent="gV95iGPZCNPMKc5DRgid-1">
          <mxGeometry x="448" y="640" width="168" height="35" as="geometry" />
        </mxCell>
        <mxCell id="u0SC-28xAL--Be5Ssd-G-6" value="&lt;b&gt;&lt;font style=&quot;font-size: 16px&quot; color=&quot;#ff0000&quot;&gt;User Input&lt;/font&gt;&lt;/b&gt;" style="text;html=1;strokeColor=none;fillColor=none;align=center;verticalAlign=middle;whiteSpace=wrap;rounded=0;" vertex="1" parent="gV95iGPZCNPMKc5DRgid-1">
          <mxGeometry x="662" y="205" width="168" height="35" as="geometry" />
        </mxCell>
        <mxCell id="vm-3O2uuTZOLLw9rTsDe-0" value="&lt;b&gt;&lt;font style=&quot;font-size: 16px&quot;&gt;&lt;u&gt;IT services&lt;/u&gt;&lt;/font&gt;&lt;/b&gt;" style="text;html=1;align=center;verticalAlign=middle;resizable=0;points=[];autosize=1;strokeColor=none;fillColor=none;" vertex="1" parent="gV95iGPZCNPMKc5DRgid-1">
          <mxGeometry x="68" y="55" width="93" height="19" as="geometry" />
        </mxCell>
        <mxCell id="m3CMDhtTg_Iw5SHWhkeQ-0" value="&lt;font style=&quot;font-size: 17px&quot; color=&quot;#ff0000&quot;&gt;&lt;b&gt;Tech div folder&lt;/b&gt;&lt;/font&gt;" style="text;html=1;strokeColor=none;fillColor=none;align=center;verticalAlign=middle;whiteSpace=wrap;rounded=0;" vertex="1" parent="gV95iGPZCNPMKc5DRgid-1">
          <mxGeometry x="181" y="23" width="131" height="69" as="geometry" />
        </mxCell>
      </root>
    </mxGraphModel>
  </diagram>
  <diagram id="JWQbmw4SA957RmJhuc0c" name="Wireframe">
    <mxGraphModel dx="1874" dy="739" grid="1" gridSize="10" guides="1" tooltips="1" connect="1" arrows="1" fold="1" page="1" pageScale="1" pageWidth="850" pageHeight="1100" math="0" shadow="0">
      <root>
        <mxCell id="k5PLboTcDlN-YSJI1zWM-0" />
        <mxCell id="k5PLboTcDlN-YSJI1zWM-1" parent="k5PLboTcDlN-YSJI1zWM-0" />
        <mxCell id="k5PLboTcDlN-YSJI1zWM-2" value="" style="whiteSpace=wrap;html=1;aspect=fixed;" vertex="1" parent="k5PLboTcDlN-YSJI1zWM-1">
          <mxGeometry x="60" y="190" width="460" height="460" as="geometry" />
        </mxCell>
        <mxCell id="NAe9nIzxoioWlirBiG8X-0" value="" style="shape=image;html=1;verticalAlign=top;verticalLabelPosition=bottom;labelBackgroundColor=#ffffff;imageAspect=0;aspect=fixed;image=https://cdn0.iconfinder.com/data/icons/fatcow/32/accordion.png" vertex="1" parent="k5PLboTcDlN-YSJI1zWM-1">
          <mxGeometry x="80" y="230" width="430" height="430" as="geometry" />
        </mxCell>
        <mxCell id="k5PLboTcDlN-YSJI1zWM-3" value="View registered service" style="rounded=0;whiteSpace=wrap;html=1;" vertex="1" parent="k5PLboTcDlN-YSJI1zWM-1">
          <mxGeometry x="340" y="415" width="110" height="30" as="geometry" />
        </mxCell>
        <mxCell id="NAe9nIzxoioWlirBiG8X-1" value="" style="verticalLabelPosition=bottom;verticalAlign=top;html=1;shape=mxgraph.basic.tick;fillColor=#d5e8d4;strokeColor=#82b366;" vertex="1" parent="k5PLboTcDlN-YSJI1zWM-1">
          <mxGeometry x="390" y="260" width="70" height="40" as="geometry" />
        </mxCell>
        <mxCell id="fvaFO60kkiBdNt6lFvxa-0" value="" style="whiteSpace=wrap;html=1;aspect=fixed;" vertex="1" parent="k5PLboTcDlN-YSJI1zWM-1">
          <mxGeometry x="75" y="680" width="440" height="440" as="geometry" />
        </mxCell>
        <mxCell id="fvaFO60kkiBdNt6lFvxa-8" value="Services...." style="text;html=1;strokeColor=none;fillColor=none;align=center;verticalAlign=middle;whiteSpace=wrap;rounded=0;" vertex="1" parent="k5PLboTcDlN-YSJI1zWM-1">
          <mxGeometry x="160" y="340" width="40" height="20" as="geometry" />
        </mxCell>
        <mxCell id="fvaFO60kkiBdNt6lFvxa-9" value="&lt;font style=&quot;font-size: 16px&quot;&gt;&lt;b&gt;Functional Qns&lt;/b&gt;&lt;/font&gt;" style="text;html=1;strokeColor=none;fillColor=none;align=center;verticalAlign=middle;whiteSpace=wrap;rounded=0;" vertex="1" parent="k5PLboTcDlN-YSJI1zWM-1">
          <mxGeometry x="160" y="270" width="40" height="20" as="geometry" />
        </mxCell>
        <mxCell id="fvaFO60kkiBdNt6lFvxa-12" value="" style="html=1;shadow=0;dashed=0;shape=mxgraph.bootstrap.rrect;rSize=5;fillColor=#E9ECEF;strokeColor=none;" vertex="1" parent="k5PLboTcDlN-YSJI1zWM-1">
          <mxGeometry x="110" y="730" width="360" height="10" as="geometry" />
        </mxCell>
        <mxCell id="fvaFO60kkiBdNt6lFvxa-13" value="" style="html=1;shadow=0;dashed=0;shape=mxgraph.bootstrap.leftButton;rSize=5;fillColor=#DB2843;strokeColor=none;resizeHeight=1;" vertex="1" parent="fvaFO60kkiBdNt6lFvxa-12">
          <mxGeometry width="250" height="10" relative="1" as="geometry" />
        </mxCell>
        <mxCell id="fvaFO60kkiBdNt6lFvxa-14" value="&lt;font style=&quot;font-size: 16px&quot;&gt;Progress bar&lt;/font&gt;" style="text;html=1;strokeColor=none;fillColor=none;align=center;verticalAlign=middle;whiteSpace=wrap;rounded=0;" vertex="1" parent="k5PLboTcDlN-YSJI1zWM-1">
          <mxGeometry x="160" y="750" width="120" height="30" as="geometry" />
        </mxCell>
      </root>
    </mxGraphModel>
  </diagram>
  <diagram id="eTfvTawoMGXTQdTjm_CP" name="Page-5">
    <mxGraphModel dx="782" dy="345" grid="1" gridSize="10" guides="1" tooltips="1" connect="1" arrows="1" fold="1" page="1" pageScale="1" pageWidth="850" pageHeight="1100" math="0" shadow="0">
      <root>
        <mxCell id="OC0PQ5ip-xov0mTCy9qc-0" />
        <mxCell id="OC0PQ5ip-xov0mTCy9qc-1" parent="OC0PQ5ip-xov0mTCy9qc-0" />
        <mxCell id="OC0PQ5ip-xov0mTCy9qc-6" value="" style="edgeStyle=orthogonalEdgeStyle;rounded=0;orthogonalLoop=1;jettySize=auto;html=1;" edge="1" parent="OC0PQ5ip-xov0mTCy9qc-1" target="OC0PQ5ip-xov0mTCy9qc-5">
          <mxGeometry relative="1" as="geometry">
            <mxPoint x="230" y="330" as="sourcePoint" />
          </mxGeometry>
        </mxCell>
        <mxCell id="OC0PQ5ip-xov0mTCy9qc-5" value="" style="whiteSpace=wrap;html=1;verticalAlign=top;strokeWidth=1;" vertex="1" parent="OC0PQ5ip-xov0mTCy9qc-1">
          <mxGeometry x="170" y="525" width="120" height="60" as="geometry" />
        </mxCell>
      </root>
    </mxGraphModel>
  </diagram>
</mxfile>
